C:\Users\israe\Dropbox\PhDWork\ExperimentalData\subject14\100\P14S100W04_filtered35.mot
nRows=8
nColumns=28

name C:\Users\israe\Dropbox\PhDWork\ExperimentalData\subject14\100\P14S100W04_filtered35.mot
datacolumns 28
datarows 8
range 1.1950000000 1.2020000000
endheader
time	ground_force_1_vx	ground_force_1_vy	ground_force_1_vz	ground_force_1_px	ground_force_1_py	ground_force_1_pz	ground_moment_1_mx	ground_moment_1_my	ground_moment_1_mz	ground_force_2_vx	ground_force_2_vy	ground_force_2_vz	ground_force_2_px	ground_force_2_py	ground_force_2_pz	ground_moment_2_mx	ground_moment_2_my	ground_moment_2_mz	ground_force_3_vx	ground_force_3_vy	ground_force_3_vz	ground_force_3_px	ground_force_3_py	ground_force_3_pz	ground_moment_3_mx	ground_moment_3_my	ground_moment_3_mz
        1.1950000000	       -0.0000000000	        0.0000000000	       -0.0000000000	        0.1988394961	        0.0000558755	       -0.3004071324	        0.0000000000	        0.0000000000	        0.0000000000	      -13.1789990864	      733.7950397375	      127.4742008555	        0.2029003516	       -0.0000795827	        0.4543649445	       17.7820893408	       -8.3597295245	       36.8145553717	        0.0000000329	        0.0000000000	       -0.0000000476	        0.2076431971	        0.0000770316	        1.3583900146	       -0.0000001053	       -0.0000000224	        0.0000000181	
        1.1960000000	       -0.0000000000	        0.0000000000	       -0.0000000000	        0.1988394961	        0.0000558755	       -0.3004071324	        0.0000000000	        0.0000000000	        0.0000000000	      -12.6317095786	      731.0421331550	      128.6587530305	        0.2029003516	       -0.0000795827	        0.4543649445	       17.6206256320	       -8.4010888022	       36.6141921015	        0.0000000370	        0.0000000000	       -0.0000000746	        0.2076431971	        0.0000770316	        1.3583900146	       -0.0000001979	       -0.0000000299	        0.0000000404	
        1.1970000000	       -0.0000000000	        0.0000000000	       -0.0000000000	        0.1988394961	        0.0000558755	       -0.3004071324	        0.0000000000	        0.0000000000	        0.0000000000	      -12.0725831548	      728.1776921327	      129.8160531007	        0.2029003516	       -0.0000795827	        0.4543649445	       17.4555752109	       -8.4431906946	       36.4069422108	        0.0000000396	        0.0000000000	       -0.0000001074	        0.2076431971	        0.0000770316	        1.3583900146	       -0.0000003161	       -0.0000000380	        0.0000000694	
        1.1980000000	       -0.0000000000	        0.0000000000	       -0.0000000000	        0.1988394961	        0.0000558755	       -0.3004071324	        0.0000000000	        0.0000000000	        0.0000000000	      -11.4994738203	      725.2031373737	      130.9447425343	        0.2029003516	       -0.0000795827	        0.4543649445	       17.2867494493	       -8.4862247608	       36.1933566845	        0.0000000398	        0.0000000000	       -0.0000001458	        0.2076431971	        0.0000770316	        1.3583900146	       -0.0000004610	       -0.0000000466	        0.0000001057	
        1.1990000000	       -0.0000000000	        0.0000000000	       -0.0000000000	        0.1988394961	        0.0000558755	       -0.3004071324	        0.0000000000	        0.0000000000	        0.0000000000	      -10.9102401599	      722.1147087677	      132.0449938498	        0.2029003516	       -0.0000795827	        0.4543649445	       17.1144370982	       -8.5302292358	       35.9735597609	        0.0000000363	        0.0000000000	       -0.0000001890	        0.2076431971	        0.0000770316	        1.3583900146	       -0.0000006319	       -0.0000000548	        0.0000001495	
        1.2000000000	       -0.0000000000	        0.0000000000	       -0.0000000000	        0.1988394961	        0.0000558755	       -0.3004071324	        0.0000000000	        0.0000000000	        0.0000000000	      -10.3041984424	      718.9040441705	      133.1157804648	        0.2029003516	       -0.0000795827	        0.4543649445	       16.9391471743	       -8.5750124323	       35.7473801349	        0.0000000279	        0.0000000000	       -0.0000002352	        0.2076431971	        0.0000770316	        1.3583900146	       -0.0000008254	       -0.0000000620	        0.0000002002	
        1.2010000000	       -0.0000000000	        0.0000000000	       -0.0000000000	        0.1988394961	        0.0000558755	       -0.3004071324	        0.0000000000	        0.0000000000	        0.0000000000	       -9.6820437636	      715.5567442685	      134.1552810049	        0.2029003516	       -0.0000795827	        0.4543649445	       16.7612921799	       -8.6201634741	       35.5145960465	        0.0000000129	        0.0000000000	       -0.0000002815	        0.2076431971	        0.0000770316	        1.3583900146	       -0.0000010344	       -0.0000000667	        0.0000002565	
        1.2020000000	       -0.0000000000	        0.0000000000	       -0.0000000000	        0.1988394961	        0.0000558755	       -0.3004071324	        0.0000000000	        0.0000000000	        0.0000000000	       -9.0453110787	      712.0511515888	      135.1630204765	        0.2029003516	       -0.0000795827	        0.4543649445	       16.5810147722	       -8.6651735362	       35.2748592758	       -0.0000000103	        0.0000000000	       -0.0000003237	        0.2076431971	        0.0000770316	        1.3583900146	       -0.0000012467	       -0.0000000676	        0.0000003156	
